<svg width="512" height="512" viewBox="0 0 512 512" fill="none" xmlns="http://www.w3.org/2000/svg">
<g clip-path="url(#clip0_249_27)">
<rect width="512" height="512" fill="#131313"/>
<path d="M48.1563 331V316.4H88.1563V203.8H86.7563L51.5563 236.6L41.7563 226L78.7563 191.4H104.956V316.4H141.756V331H48.1563ZM201.078 333.4C192.545 333.4 185.211 331.8 179.078 328.6C172.945 325.267 167.878 320.533 163.878 314.4C159.878 308.267 156.945 300.733 155.078 291.8C153.211 282.867 152.278 272.667 152.278 261.2C152.278 249.867 153.211 239.733 155.078 230.8C156.945 221.733 159.878 214.133 163.878 208C167.878 201.867 172.945 197.2 179.078 194C185.211 190.667 192.545 189 201.078 189C209.611 189 216.945 190.667 223.078 194C229.211 197.2 234.278 201.867 238.278 208C242.278 214.133 245.211 221.733 247.078 230.8C248.945 239.733 249.878 249.867 249.878 261.2C249.878 272.667 248.945 282.867 247.078 291.8C245.211 300.733 242.278 308.267 238.278 314.4C234.278 320.533 229.211 325.267 223.078 328.6C216.945 331.8 209.611 333.4 201.078 333.4ZM201.078 318.8C206.678 318.8 211.478 317.733 215.478 315.6C219.478 313.333 222.678 310.2 225.078 306.2C227.611 302.2 229.478 297.4 230.678 291.8C231.878 286.067 232.478 279.667 232.478 272.6V249.8C232.478 242.867 231.878 236.533 230.678 230.8C229.478 225.067 227.611 220.2 225.078 216.2C222.678 212.2 219.478 209.133 215.478 207C211.478 204.733 206.678 203.6 201.078 203.6C195.478 203.6 190.678 204.733 186.678 207C182.678 209.133 179.411 212.2 176.878 216.2C174.478 220.2 172.678 225.067 171.478 230.8C170.278 236.533 169.678 242.867 169.678 249.8V272.6C169.678 279.667 170.278 286.067 171.478 291.8C172.678 297.4 174.478 302.2 176.878 306.2C179.411 310.2 182.678 313.333 186.678 315.6C190.678 317.733 195.478 318.8 201.078 318.8ZM201.078 273C196.411 273 193.145 272.067 191.278 270.2C189.545 268.333 188.678 266.067 188.678 263.4V259C188.678 256.333 189.545 254.067 191.278 252.2C193.145 250.333 196.411 249.4 201.078 249.4C205.745 249.4 208.945 250.333 210.678 252.2C212.545 254.067 213.478 256.333 213.478 259V263.4C213.478 266.067 212.545 268.333 210.678 270.2C208.945 272.067 205.745 273 201.078 273ZM285 206H253V191.4H301.8V247.4H328C340.533 247.4 350.133 251 356.8 258.2C363.6 265.4 367 275.733 367 289.2C367 302.667 363.6 313 356.8 320.2C350.133 327.4 340.533 331 328 331H285V206ZM327.6 316.4C334.267 316.4 339.533 314.667 343.4 311.2C347.267 307.6 349.2 302 349.2 294.4V284C349.2 276.4 347.267 270.867 343.4 267.4C339.533 263.8 334.267 262 327.6 262H301.8V316.4H327.6ZM422.122 333.4C411.322 333.4 401.989 331.6 394.122 328C386.389 324.267 379.789 319.333 374.322 313.2L385.122 303.8C390.055 309 395.455 313 401.322 315.8C407.189 318.6 414.255 320 422.522 320C430.522 320 437.055 318.6 442.122 315.8C447.322 312.867 449.922 308.333 449.922 302.2C449.922 299.533 449.389 297.333 448.322 295.6C447.389 293.733 446.055 292.267 444.322 291.2C442.589 290.133 440.655 289.333 438.522 288.8C436.389 288.133 434.122 287.6 431.722 287.2L415.522 284.8C411.922 284.267 407.989 283.533 403.722 282.6C399.589 281.667 395.789 280.2 392.322 278.2C388.855 276.067 385.922 273.267 383.522 269.8C381.255 266.333 380.122 261.8 380.122 256.2C380.122 251 381.122 246.533 383.122 242.8C385.255 238.933 388.189 235.733 391.922 233.2C395.655 230.533 400.055 228.6 405.122 227.4C410.189 226.067 415.722 225.4 421.722 225.4C431.055 225.4 439.122 226.867 445.922 229.8C452.855 232.733 458.789 236.8 463.722 242L453.322 251.8C452.122 250.333 450.589 248.867 448.722 247.4C446.989 245.8 444.789 244.4 442.122 243.2C439.589 241.867 436.589 240.8 433.122 240C429.655 239.2 425.655 238.8 421.122 238.8C412.989 238.8 406.722 240.2 402.322 243C398.055 245.8 395.922 249.867 395.922 255.2C395.922 257.867 396.389 260.133 397.322 262C398.389 263.733 399.789 265.133 401.522 266.2C403.255 267.267 405.189 268.133 407.322 268.8C409.589 269.333 411.855 269.8 414.122 270.2L430.322 272.6C434.055 273.133 437.989 273.867 442.122 274.8C446.255 275.733 450.055 277.267 453.522 279.4C456.989 281.4 459.855 284.133 462.122 287.6C464.522 291.067 465.722 295.6 465.722 301.2C465.722 311.467 461.722 319.4 453.722 325C445.855 330.6 435.322 333.4 422.122 333.4Z" fill="white"/>
</g>
<defs>
<clipPath id="clip0_249_27">
<rect width="512" height="512" fill="white"/>
</clipPath>
</defs>
</svg>
